G:\RME\Thesis\opencap-processing\Data\089bb815-6ab6-4c35-820c-ac6f9c5db3e0\OpenSimData\Dynamics\walking\GRF_resultant_walking_0.mot
version=1
nRows=22
nColumns=19
inDegrees=yes
endheader 
time	ground_force_right_vx	ground_force_right_vy	ground_force_right_vz	ground_force_right_px	ground_force_right_py	ground_force_right_pz	ground_torque_right_x	ground_torque_right_y	ground_torque_right_z	ground_force_left_vx	ground_force_left_vy	ground_force_left_vz	ground_force_left_px	ground_force_left_py	ground_force_left_pz	ground_torque_left_x	ground_torque_left_y	ground_torque_left_z	
          1.00000000	         17.16709866	        224.99843302	         21.51125313	          0.49017677	          0.00000000	         -0.20127663	          0.00000000	         -0.18235718	          0.00000000	         15.62072461	        635.00186822	         -0.14911644	          0.30054796	          0.00000000	         -0.41409107	          0.00000000	          0.29030375	          0.00000000	
          1.01000000	         13.25421736	        229.54729621	         20.91739424	          0.49449331	          0.00000000	         -0.20123719	          0.00000000	         -0.07278624	          0.00000000	         14.57488491	        625.05492970	         -1.42369089	          0.30251193	          0.00000000	         -0.41374678	          0.00000000	          0.47859687	          0.00000000	
          1.02000000	          9.81153595	        230.18350825	         20.76609759	          0.49842024	          0.00000000	         -0.20119446	          0.00000000	          0.07536885	          0.00000000	         13.13865604	        614.68817118	         -2.23907039	          0.30449408	          0.00000000	         -0.41340810	          0.00000000	          0.64539307	          0.00000000	
          1.03000000	          6.69613669	        227.69233069	         21.39307336	          0.50185919	          0.00000000	         -0.20116111	          0.00000000	          0.25187780	          0.00000000	         11.07432650	        603.26285076	         -2.93314382	          0.30653949	          0.00000000	         -0.41307422	          0.00000000	          0.77628935	          0.00000000	
          1.04000000	          3.77872801	        223.09472810	         22.31835632	          0.50470409	          0.00000000	         -0.20115319	          0.00000000	          0.45063144	          0.00000000	          9.67173530	        590.21319423	         -3.54809783	          0.30868014	          0.00000000	         -0.41273298	          0.00000000	          0.86191426	          0.00000000	
          1.05000000	          1.06303907	        217.60483490	         23.53141633	          0.50695959	          0.00000000	         -0.20117298	          0.00000000	          0.66701512	          0.00000000	          8.63512001	        575.25125627	         -4.57428043	          0.31088992	          0.00000000	         -0.41238219	          0.00000000	          0.90509913	          0.00000000	
          1.06000000	         -1.54561973	        212.49078823	         24.67008320	          0.50868600	          0.00000000	         -0.20122966	          0.00000000	          0.90657039	          0.00000000	          7.97244384	        558.93032744	         -5.46122236	          0.31314784	          0.00000000	         -0.41200476	          0.00000000	          0.91426889	          0.00000000	
          1.07000000	         -3.65693262	        208.91326219	         25.50490700	          0.51006400	          0.00000000	         -0.20132598	          0.00000000	          1.17507492	          0.00000000	          8.07571005	        541.77015590	         -6.37988763	          0.31544641	          0.00000000	         -0.41160020	          0.00000000	          0.89599545	          0.00000000	
          1.08000000	         -5.74340896	        207.77462069	         25.88306735	          0.51126327	          0.00000000	         -0.20145953	          0.00000000	          1.48206138	          0.00000000	          8.69113428	        524.98884777	         -7.25614045	          0.31777528	          0.00000000	         -0.41116928	          0.00000000	          0.85932280	          0.00000000	
          1.09000000	         -7.78137720	        209.89797764	         25.78529586	          0.51248319	          0.00000000	         -0.20162020	          0.00000000	          1.83811761	          0.00000000	         10.81711803	        509.20709717	         -7.87524465	          0.32014377	          0.00000000	         -0.41071515	          0.00000000	          0.81130689	          0.00000000	
          1.10000000	         -9.94204715	        215.81888563	         25.19018858	          0.51390062	          0.00000000	         -0.20179001	          0.00000000	          2.25634427	          0.00000000	         14.01414620	        495.95916091	         -8.54103834	          0.32253357	          0.00000000	         -0.41025279	          0.00000000	          0.76565418	          0.00000000	
          1.11000000	        -12.89579327	        226.02882270	         24.65759481	          0.51563657	          0.00000000	         -0.20193838	          0.00000000	          2.74439928	          0.00000000	         18.72993055	        485.41021949	         -9.10228018	          0.32494026	          0.00000000	         -0.40979637	          0.00000000	          0.72852027	          0.00000000	
          1.12000000	        -16.44302126	        240.81064896	         24.46808685	          0.51777118	          0.00000000	         -0.20203602	          0.00000000	          3.29994117	          0.00000000	         23.89567418	        478.27275809	         -9.71984409	          0.32731700	          0.00000000	         -0.40937376	          0.00000000	          0.70929645	          0.00000000	
          1.13000000	        -20.76546352	        260.00551381	         24.94740456	          0.52023516	          0.00000000	         -0.20205420	          0.00000000	          3.89330200	          0.00000000	         29.86335533	        474.79794687	        -10.31905717	          0.32962014	          0.00000000	         -0.40902180	          0.00000000	          0.71099284	          0.00000000	
          1.14000000	        -25.25114287	        282.81511063	         25.90245956	          0.52291520	          0.00000000	         -0.20197147	          0.00000000	          4.47074279	          0.00000000	         35.13555626	        475.13877504	        -11.21984634	          0.33175422	          0.00000000	         -0.40880784	          0.00000000	          0.73729777	          0.00000000	
          1.15000000	        -29.64920120	        307.27249455	         27.17458978	          0.52546937	          0.00000000	         -0.20177810	          0.00000000	          4.91168223	          0.00000000	         39.93863092	        479.19081309	        -11.95439693	          0.33369807	          0.00000000	         -0.40876213	          0.00000000	          0.78725537	          0.00000000	
          1.16000000	        -33.15125962	        330.56082860	         27.28015985	          0.52761932	          0.00000000	         -0.20148978	          0.00000000	          5.10939310	          0.00000000	         43.94897543	        484.68374081	        -12.72818721	          0.33557627	          0.00000000	         -0.40886362	          0.00000000	          0.84709334	          0.00000000	
          1.17000000	        -35.45544096	        349.62236367	         25.78083336	          0.52906360	          0.00000000	         -0.20112246	          0.00000000	          4.97004586	          0.00000000	         46.69969718	        488.98170538	        -13.88716407	          0.33756609	          0.00000000	         -0.40907243	          0.00000000	          0.88905505	          0.00000000	
          1.18000000	        -36.23284995	        362.50415868	         23.82322767	          0.52963108	          0.00000000	         -0.20068153	          0.00000000	          4.51788982	          0.00000000	         48.49749940	        489.15750343	        -15.42985036	          0.33974922	          0.00000000	         -0.40939544	          0.00000000	          0.88559324	          0.00000000	
          1.19000000	        -34.97840953	        368.77809217	         21.60200939	          0.52920328	          0.00000000	         -0.20019078	          0.00000000	          3.83651897	          0.00000000	         48.32480288	        483.78058981	        -17.27111084	          0.34210731	          0.00000000	         -0.40983999	          0.00000000	          0.81276231	          0.00000000	
          1.20000000	        -32.24804092	        370.46069128	         18.87358643	          0.52788252	          0.00000000	         -0.19966563	          0.00000000	          3.08285868	          0.00000000	         46.86050253	        470.33223222	        -17.92831691	          0.34461824	          0.00000000	         -0.41033419	          0.00000000	          0.65176389	          0.00000000	
          1.21000000	        -30.14968069	        370.39045921	         14.10242122	          0.52572171	          0.00000000	         -0.19913878	          0.00000000	          2.36197733	          0.00000000	         45.46307361	        448.56454790	        -16.61850399	          0.34716689	          0.00000000	         -0.41077793	          0.00000000	          0.42163571	          0.00000000	
